<svg id="Layer_1" data-name="Layer 1" xmlns="http://www.w3.org/2000/svg" viewBox="0 0 205.19 257.93"><defs><style>.cls-1{fill:#00a79e;stroke-width:3px;}.cls-1,.cls-3{stroke:#231f20;stroke-miterlimit:10;}.cls-2{fill:#5c80a1;}.cls-3,.cls-5{fill:#4dc1bb;}.cls-3{stroke-width:2px;}.cls-4,.cls-8{fill:#fff;}.cls-4{opacity:0.5;}.cls-6{fill:#eceae6;}.cls-7,.cls-8{opacity:0.7;}.cls-9{font-size:41px;fill:#ed1f24;font-family:MyriadPro-Regular, Myriad Pro;}.cls-10{letter-spacing:0.97em;}</style></defs><rect class="cls-1" x="5.23" y="16.78" width="182.23" height="239.61" rx="12"/><path class="cls-2" d="M96.05,255.8c-25.85,0-48.54.44-64.78.36-6.14,0-11.16.22-15.55-.47-5.53-.88-8.5-4.26-8.93-9.53V134.7c0-.83,2.71-1.53,6.19-1.59,27.33-.48,38.78-1.3,45.92-2.1,3.05-.34,6.54-.62,11.23-1.38a152.3,152.3,0,0,0,28.72-7.58,143.61,143.61,0,0,0,23.93-4.88c14.46-4.25,18.78-8,26.87-9.22s20.18,0,36.19,12.12q0,3.87.13,8c.09,2.27.21,4.48.37,6.61l.5,111.93c0,3.74-3.64,8.55-10.1,9.17-5.81.56-14,.26-23.51.36-5.62.05-10.39-.34-18.42-.5C123,255.45,109.57,256.72,96.05,255.8Z"/><ellipse class="cls-3" cx="103.04" cy="24.83" rx="97.81" ry="19.79"/><path class="cls-3" d="M187.46,35.36c2.21-.65,9.3-3,12.35-7.64-3.8,6.53-8.55,14.17-12.35,20.69Z"/><ellipse class="cls-4" cx="29.45" cy="23.89" rx="15.54" ry="7.12"/><ellipse class="cls-5" cx="68.02" cy="23.89" rx="45.5" ry="11.75"/><rect class="cls-6" x="6.97" y="134.47" width="179.7" height="38.98"/><rect class="cls-4" x="12.41" y="51.45" width="10.11" height="196.17" rx="5.06"/><g class="cls-7"><rect class="cls-8" x="139.79" y="72.45" width="43.61" height="6.14" rx="2.03"/><rect class="cls-8" x="139.79" y="101.81" width="43.61" height="6.14" rx="2.03"/><rect class="cls-8" x="148.25" y="86.4" width="26.68" height="4.3" rx="1.42"/><rect class="cls-8" x="148.25" y="119.06" width="26.68" height="4.3" rx="1.42"/><rect class="cls-8" x="138.2" y="134.47" width="43.61" height="6.14" rx="2.03"/><rect class="cls-8" x="138.2" y="163.83" width="43.61" height="6.14" rx="2.03"/><rect class="cls-8" x="146.66" y="148.42" width="26.68" height="4.3" rx="1.42"/><rect class="cls-8" x="146.66" y="181.07" width="26.68" height="4.3" rx="1.42"/><rect class="cls-8" x="138.2" y="196.48" width="43.61" height="6.14" rx="2.03"/><rect class="cls-8" x="138.2" y="225.84" width="43.61" height="6.14" rx="2.03"/><rect class="cls-8" x="146.66" y="210.43" width="26.68" height="4.3" rx="1.42"/><rect class="cls-8" x="146.66" y="243.09" width="26.68" height="4.3" rx="1.42"/></g><text class="cls-9" transform="translate(-22.48 168.97) scale(0.93 1)"><tspan class="cls-10" xml:space="preserve">		</tspan><tspan x="97.33" y="0">HCl</tspan></text><text/></svg>