<svg id="Layer_1" data-name="Layer 1" xmlns="http://www.w3.org/2000/svg" viewBox="0 0 205.19 257.93"><defs><style>.cls-1{fill:#fdbe68;stroke-width:3px;}.cls-1,.cls-3{stroke:#231f20;stroke-miterlimit:10;}.cls-2{fill:#c69959;}.cls-3,.cls-5{fill:#faa64f;}.cls-3{stroke-width:2px;}.cls-4,.cls-7{fill:#fff;}.cls-4{opacity:0.5;}.cls-6,.cls-7{opacity:0.7;}.cls-8{fill:#eceae6;}.cls-9{font-size:41px;fill:#ed1f24;font-family:MyriadPro-Regular, Myriad Pro;}.cls-10{letter-spacing:-0.01em;}.cls-11{letter-spacing:0em;}</style></defs><rect class="cls-1" x="6.72" y="16.46" width="182.23" height="239.61" rx="12"/><path class="cls-2" d="M97.54,255.49c-25.85,0-48.54.43-64.78.36-6.14,0-11.16.22-15.55-.48-5.53-.88-8.5-4.26-8.93-9.52V134.39c0-.84,2.71-1.53,6.19-1.6,27.33-.48,38.79-1.3,45.92-2.09,3-.34,6.54-.63,11.23-1.39a151.53,151.53,0,0,0,28.72-7.58,142.58,142.58,0,0,0,23.93-4.88c14.46-4.25,18.78-8,26.87-9.22s20.18.05,36.19,12.13q0,3.85.13,8,.14,3.42.37,6.62l.5,111.93c0,3.73-3.64,8.54-10.1,9.16-5.8.56-14,.27-23.51.36-5.62.06-10.39-.34-18.42-.49C124.5,255.14,111.06,256.41,97.54,255.49Z"/><ellipse class="cls-3" cx="104.53" cy="24.51" rx="97.81" ry="19.79"/><path class="cls-3" d="M189,35.05c2.21-.66,9.3-3,12.35-7.64-3.8,6.52-8.55,14.16-12.35,20.68Z"/><ellipse class="cls-4" cx="30.94" cy="23.58" rx="15.54" ry="7.12"/><ellipse class="cls-5" cx="69.51" cy="23.58" rx="45.5" ry="11.75"/><rect class="cls-4" x="13.9" y="51.14" width="10.11" height="196.17" rx="5.06"/><g class="cls-6"><rect class="cls-7" x="141.28" y="72.14" width="43.61" height="6.14" rx="2.03"/><rect class="cls-7" x="141.28" y="101.5" width="43.61" height="6.14" rx="2.03"/><rect class="cls-7" x="149.74" y="86.09" width="26.68" height="4.3" rx="1.42"/><rect class="cls-7" x="149.74" y="118.74" width="26.68" height="4.3" rx="1.42"/><rect class="cls-7" x="139.69" y="134.15" width="43.61" height="6.14" rx="2.03"/><rect class="cls-7" x="139.69" y="163.51" width="43.61" height="6.14" rx="2.03"/><rect class="cls-7" x="148.15" y="148.1" width="26.68" height="4.3" rx="1.42"/><rect class="cls-7" x="148.15" y="180.76" width="26.68" height="4.3" rx="1.42"/><rect class="cls-7" x="139.69" y="196.17" width="43.61" height="6.14" rx="2.03"/><rect class="cls-7" x="139.69" y="225.52" width="43.61" height="6.14" rx="2.03"/><rect class="cls-7" x="148.15" y="210.12" width="26.68" height="4.3" rx="1.42"/><rect class="cls-7" x="148.15" y="242.77" width="26.68" height="4.3" rx="1.42"/></g><rect class="cls-8" x="8.07" y="134.15" width="179.7" height="43.73"/><text class="cls-9" transform="translate(23.95 168.43) scale(0.93 1)">Mg<tspan class="cls-10" x="55.88" y="0">(</tspan><tspan class="cls-11" x="67.03" y="0">OH)2</tspan></text></svg>