<svg id="Layer_1" data-name="Layer 1" xmlns="http://www.w3.org/2000/svg" viewBox="0 0 205.19 257.93"><defs><style>.cls-1{fill:#339c66;stroke-width:3px;}.cls-1,.cls-3{stroke:#231f20;stroke-miterlimit:10;}.cls-2{fill:#0e763c;}.cls-3,.cls-5{fill:#70b67b;}.cls-3{stroke-width:2px;}.cls-4,.cls-7{fill:#fff;}.cls-4{opacity:0.5;}.cls-6,.cls-7{opacity:0.7;}.cls-8{fill:#eceae6;}.cls-9{font-size:41px;fill:#ed1f24;font-family:MyriadPro-Regular, Myriad Pro;}.cls-10{letter-spacing:0.97em;}.cls-11{letter-spacing:-0.01em;}</style></defs><rect class="cls-1" x="4.62" y="16.74" width="182.23" height="239.61" rx="12"/><path class="cls-2" d="M95.44,255.77c-25.85,0-48.54.43-64.78.36-6.14,0-11.16.22-15.55-.48-5.53-.88-8.5-4.26-8.93-9.52V134.67c0-.84,2.71-1.53,6.19-1.6,27.33-.48,38.78-1.3,45.92-2.09,3-.34,6.53-.63,11.23-1.39A151.75,151.75,0,0,0,98.24,122a142.58,142.58,0,0,0,23.93-4.88c14.46-4.25,18.78-8,26.87-9.22s20.18,0,36.19,12.13q0,3.85.13,8,.13,3.42.37,6.62l.5,111.93c0,3.73-3.64,8.54-10.1,9.16-5.81.56-14,.27-23.51.36-5.63.06-10.39-.34-18.42-.49C122.4,255.42,109,256.69,95.44,255.77Z"/><ellipse class="cls-3" cx="102.43" cy="24.79" rx="97.81" ry="19.79"/><path class="cls-3" d="M186.85,35.33c2.21-.66,9.29-3,12.35-7.64-3.8,6.52-8.56,14.16-12.35,20.68Z"/><ellipse class="cls-4" cx="28.84" cy="23.86" rx="15.54" ry="7.12"/><ellipse class="cls-5" cx="67.41" cy="23.86" rx="45.5" ry="11.75"/><g class="cls-6"><rect class="cls-7" x="139.18" y="72.42" width="43.61" height="6.14" rx="2.03"/><rect class="cls-7" x="139.18" y="101.78" width="43.61" height="6.14" rx="2.03"/><rect class="cls-7" x="147.64" y="86.37" width="26.68" height="4.3" rx="1.42"/><rect class="cls-7" x="147.64" y="119.02" width="26.68" height="4.3" rx="1.42"/><rect class="cls-7" x="137.59" y="134.43" width="43.61" height="6.14" rx="2.03"/><rect class="cls-7" x="137.59" y="163.79" width="43.61" height="6.14" rx="2.03"/><rect class="cls-7" x="146.05" y="148.38" width="26.68" height="4.3" rx="1.42"/><rect class="cls-7" x="146.05" y="181.04" width="26.68" height="4.3" rx="1.42"/><rect class="cls-7" x="137.59" y="196.45" width="43.61" height="6.14" rx="2.03"/><rect class="cls-7" x="137.59" y="225.8" width="43.61" height="6.14" rx="2.03"/><rect class="cls-7" x="146.05" y="210.4" width="26.68" height="4.3" rx="1.42"/><rect class="cls-7" x="146.05" y="243.05" width="26.68" height="4.3" rx="1.42"/></g><rect class="cls-4" x="11.8" y="51.42" width="10.11" height="196.17" rx="5.06"/><rect class="cls-8" x="6.1" y="133.04" width="179.7" height="38.98"/><text class="cls-9" transform="translate(-37.86 166.56) scale(0.93 1)"><tspan class="cls-10" xml:space="preserve">		</tspan><tspan class="cls-11" x="97.33" y="0">C</tspan><tspan x="120.82" y="0">aCl2</tspan></text></svg>