<svg id="Layer_1" data-name="Layer 1" xmlns="http://www.w3.org/2000/svg" viewBox="0 0 146.88 145.53"><defs><style>.cls-1{fill:#fecd8a;stroke-width:2px;}.cls-1,.cls-2{stroke:#231f20;stroke-miterlimit:10;}.cls-2,.cls-5{fill:#fdbe68;}.cls-3,.cls-4{fill:#fff;}.cls-3{opacity:0.36;}.cls-4{opacity:0.5;}</style></defs><path class="cls-1" d="M143.74,133.57,98.23,60.41a7.49,7.49,0,0,1-1.13-4V10a7.5,7.5,0,0,0-7.5-7.5H58.2A7.5,7.5,0,0,0,50.7,10V56.72a7.46,7.46,0,0,1-1.16,4C34.39,84.76,20,109.28,4.08,132.84c-3.76,5.57,0,11.88,6.31,11.5,42.23-2.57,84.62.46,126.94.7A7.51,7.51,0,0,0,143.74,133.57Z"/><rect class="cls-2" x="43.17" y="1" width="61.12" height="6.87" rx="2.69"/><rect class="cls-3" x="29.21" y="61.38" width="7.04" height="76.24" rx="3.52" transform="matrix(0.84, 0.54, -0.54, 0.84, 58.52, -2.02)"/><rect class="cls-3" x="54.87" y="11.76" width="7.04" height="33.02" rx="3.52"/><ellipse class="cls-4" cx="46.52" cy="4.16" rx="1.94" ry="2.04" transform="translate(0.5 12.11) rotate(-14.91)"/><path class="cls-5" d="M50.21,3.17c.07.17-.88.31-1.47,1.23-.86,1.32-.13,3-.43,3a2.82,2.82,0,0,1-1.25-3.24C47.74,2.68,50.11,2.92,50.21,3.17Z"/></svg>