<svg id="Layer_1" data-name="Layer 1" xmlns="http://www.w3.org/2000/svg" viewBox="0 0 146.88 145.53"><defs><style>.cls-1{fill:#fecd8a;stroke-width:2px;}.cls-1,.cls-2{stroke:#231f20;stroke-miterlimit:10;}.cls-2,.cls-6{fill:#fdbe68;}.cls-3{fill:#fbb040;}.cls-4,.cls-5{fill:#fff;}.cls-4{opacity:0.36;}.cls-5{opacity:0.5;}</style></defs><path class="cls-1" d="M143.9,134.06,98.39,60.9a7.49,7.49,0,0,1-1.13-4V10.48A7.5,7.5,0,0,0,89.76,3H58.36a7.5,7.5,0,0,0-7.5,7.5V57.21a7.53,7.53,0,0,1-1.15,4c-15.16,24-29.57,48.56-45.46,72.12-3.76,5.57,0,11.88,6.3,11.5,42.24-2.57,84.63.46,126.94.7A7.51,7.51,0,0,0,143.9,134.06Z"/><rect class="cls-2" x="43.33" y="1.49" width="61.12" height="6.87" rx="2.69"/><path class="cls-3" d="M142.17,133c-4.12-6.07-30-49.47-30.62-49-.06,0-4.19-6.85-4.39-6.95s-.33.47-.39.53a6.21,6.21,0,0,1,.39-.53s-.8-1.56-2.44-4.33c-1.44,1.44-5.14,1.89-6.58,3.32-2.65.36-4.56,2.48-8.23,4a38.7,38.7,0,0,0-13,9.07,22.91,22.91,0,0,1-2.52,1,24,24,0,0,1-7.44,1.09,30.92,30.92,0,0,1-11.39-.87c-10.28-2.8-13.63-12.86-16.92-9.06-5.76,6.66-12.57,21.83-21.56,34.3-5.61,7.8-9.51,14.85-13,20.2-1.1,1.68.33,6,2.54,7,3,1.45,4.93,1,7.82.79,40.05-2.4,80.25.44,120.38.65a20.06,20.06,0,0,0,4.39-.29c2.76-.7,2.91-1.47,3.64-2.33a5.54,5.54,0,0,0,1-4.32A10.11,10.11,0,0,0,142.17,133Z"/><rect class="cls-4" x="29.38" y="61.87" width="7.04" height="76.24" rx="3.52" transform="translate(58.81 -2.03) rotate(32.46)"/><rect class="cls-4" x="55.03" y="12.25" width="7.04" height="33.02" rx="3.52"/><ellipse class="cls-5" cx="46.69" cy="4.65" rx="1.94" ry="2.04" transform="translate(0.37 12.17) rotate(-14.91)"/><path class="cls-6" d="M50.38,3.66c.07.17-.88.31-1.47,1.23-.87,1.32-.13,3-.43,3a2.84,2.84,0,0,1-1.26-3.24C47.9,3.17,50.28,3.41,50.38,3.66Z"/></svg>