<svg id="Layer_1" data-name="Layer 1" xmlns="http://www.w3.org/2000/svg" viewBox="0 0 435.6 352.57"><defs><style>.cls-1{fill:#9a9999;stroke-width:0.75px;}.cls-1,.cls-2,.cls-4{stroke:#231f20;stroke-miterlimit:10;}.cls-2{fill:#c49a6c;}.cls-3{fill:#221f1f;}.cls-4{fill:#6f7776;stroke-width:5px;}</style></defs><rect class="cls-1" x="34.79" y="76.8" width="248" height="6.4"/><path class="cls-2" d="M431.38,352.57H4.51l56.06-28.79h316Z"/><path class="cls-2" d="M431.38,351.57H4.51l56.06-28.79h316Z"/><path class="cls-2" d="M431.38,350.57H4.51l56.06-28.79h316Z"/><path class="cls-2" d="M431.38,349.57H4.51l56.06-28.79h316Z"/><path class="cls-2" d="M431.38,348.57H4.51l56.06-28.79h316Z"/><path class="cls-2" d="M431.38,347.57H4.51l56.06-28.79h316Z"/><path class="cls-2" d="M431.38,346.57H4.51l56.06-28.79h316Z"/><path class="cls-2" d="M431.38,345.57H4.51l56.06-28.79h316Z"/><rect class="cls-1" x="103.59" width="7.2" height="329.6"/><rect class="cls-3" x="101.26" y="56.25" width="11.87" height="45.89"/><rect class="cls-3" x="68.36" y="74.85" width="77.67" height="8.7"/><rect class="cls-3" x="263.34" y="73.67" width="19.45" height="12.66"/><rect class="cls-4" x="282.79" y="61.6" width="68.8" height="35.2" rx="12"/></svg>