<svg id="Layer_1" data-name="Layer 1" xmlns="http://www.w3.org/2000/svg" viewBox="0 0 434.16 367.55"><defs><style>.cls-1{fill:#9a9999;stroke-width:0.75px;}.cls-1,.cls-2,.cls-9{stroke:#231f20;stroke-miterlimit:10;}.cls-2{fill:#c49a6c;}.cls-3{fill:#221f1f;}.cls-4{fill:#00a79d;}.cls-5{fill:#5c80a1;}.cls-6,.cls-8{fill:#fff;}.cls-6{opacity:0.4;}.cls-7{fill:#4cc1bb;}.cls-8{opacity:0.5;}.cls-9{fill:#6f7776;stroke-width:5px;}</style></defs><rect class="cls-1" x="33.41" y="91.78" width="248" height="6.4"/><path class="cls-2" d="M430,367.55H3.12l56.07-28.79h316Z"/><path class="cls-2" d="M430,366.55H3.12l56.07-28.79h316Z"/><path class="cls-2" d="M430,365.55H3.12l56.07-28.79h316Z"/><path class="cls-2" d="M430,364.55H3.12l56.07-28.79h316Z"/><path class="cls-2" d="M430,363.55H3.12l56.07-28.79h316Z"/><path class="cls-2" d="M430,362.55H3.12l56.07-28.79h316Z"/><path class="cls-2" d="M430,361.55H3.12l56.07-28.79h316Z"/><path class="cls-2" d="M430,360.55H3.12l56.07-28.79h316Z"/><rect class="cls-1" x="102.21" y="14.98" width="7.2" height="329.6"/><rect class="cls-3" x="99.87" y="71.24" width="11.87" height="45.89"/><rect class="cls-3" x="66.97" y="89.83" width="77.67" height="8.7"/><rect class="cls-3" x="261.96" y="88.65" width="19.45" height="12.66"/><path class="cls-4" d="M318.69,196.82h0A22.18,22.18,0,0,1,300,189.63c-9.62-10.3-8.21-25.57-8.08-26.84V46.07c2.68-.1,6.75-.24,11.74-.31,5.38-.08,6.15,0,14.15,0,10.48,0,12.59-.16,19.15,0,3.66.09,6.63.22,8.49.31.88,53.44.59,94.68,0,116.63-.15,5.72-.57,16.22-6.64,24.22C330.88,197.43,320.14,196.92,318.69,196.82Z"/><path class="cls-5" d="M318.69,189h0c-12.06,0-21.92-8.41-21.92-18.69V84.89a1.51,1.51,0,0,1,1.51-1.38c16.19-1,9.57-3.73,20.41-3.73h0a19.1,19.1,0,0,1,5.3.82,35.45,35.45,0,0,1,5.68,2.52h0c.67-.23,5.79-1.89,9.39.41a6.58,6.58,0,0,1,1.54,1.38V170.3C340.6,180.58,330.74,189,318.69,189Z"/><ellipse class="cls-4" cx="326.54" cy="95.61" rx="4.97" ry="6.07"/><ellipse class="cls-4" cx="332.7" cy="89.55" rx="2.84" ry="3.47"/><path class="cls-6" d="M305,184.82c-.19.1-.43-.08-.6-.22-1.05-.84-1.43-1.55-2.34-2.38-.25-.23-.44-.39-.77-.73a8.86,8.86,0,0,1-.78-1,17.86,17.86,0,0,1-3.76-12.14V56.59c1.42,0,2.87-.06,4.35-.05s2.71,0,4,.05V168.37c.1,7.58.17,13,.22,14a9.32,9.32,0,0,1-.05,1.44C305.25,184.52,305.16,184.74,305,184.82Z"/><rect class="cls-7" x="281.41" y="35.44" width="75.05" height="12.17" rx="4.96"/><ellipse class="cls-8" cx="287.7" cy="41.53" rx="2.28" ry="2.74"/><path class="cls-7" d="M292.19,41.51c0,.24-1.1.1-2,1.08-1.38,1.42-1,3.8-1.41,3.79s-1.66-2.93-.45-4.63S292.15,41.15,292.19,41.51Z"/><ellipse class="cls-4" cx="335.11" cy="17.23" rx="5.36" ry="6.38"/><ellipse class="cls-4" cx="344.39" cy="7.2" rx="3.06" ry="3.65"/><ellipse class="cls-4" cx="344.39" cy="25.64" rx="3.06" ry="3.65"/><rect class="cls-9" x="281.41" y="76.58" width="68.8" height="35.2" rx="12"/></svg>