<svg id="Layer_1" data-name="Layer 1" xmlns="http://www.w3.org/2000/svg" viewBox="0 0 454.32 195.62"><defs><style>.cls-1{fill:#c49a6c;}.cls-1,.cls-2{stroke:#231f20;stroke-miterlimit:10;}.cls-2{fill:#231f20;}.cls-3{fill:#00a79d;}.cls-4{fill:#5c80a1;}.cls-5,.cls-7{fill:#fff;}.cls-5{opacity:0.4;}.cls-6{fill:#4cc1bb;}.cls-7{opacity:0.5;}</style></defs><path class="cls-1" d="M450.42,195.62H4.16l58.61-23.16H393.14Z"/><path class="cls-1" d="M450.42,194.89H4.16l58.61-23.45H393.14Z"/><path class="cls-1" d="M450.42,194.17H4.16l58.61-23.76H393.14Z"/><path class="cls-1" d="M450.42,193.45H4.16l58.61-24.07H393.14Z"/><path class="cls-1" d="M450.42,192.72H4.16l58.61-24.36H393.14Z"/><path class="cls-1" d="M450.42,192H4.16l58.61-24.67H393.14Z"/><path class="cls-1" d="M450.42,191.28H4.16l58.61-25H393.14Z"/><path class="cls-1" d="M450.42,190.55H4.16l58.61-25.27H393.14Z"/><path class="cls-1" d="M450.42,189.83H4.16l58.61-25.58H393.14Z"/><path class="cls-1" d="M450.42,189.11H4.16l58.61-25.89H393.14Z"/><path class="cls-1" d="M450.42,188.38H4.16L62.77,162.2H393.14Z"/><path class="cls-1" d="M450.42,187.66H4.16l58.61-26.49H393.14Z"/><path class="cls-1" d="M450.42,186.93H4.16l58.61-26.78H393.14Z"/><path class="cls-1" d="M450.42,186.21H4.16l58.61-27.09H393.14Z"/><path class="cls-1" d="M450.42,185.49H4.16l58.61-27.4H393.14Z"/><path class="cls-1" d="M450.42,184.76H4.16l58.61-27.69H393.14Z"/><path class="cls-1" d="M450.42,184H4.16l58.61-28H393.14Z"/><rect class="cls-2" x="76.79" y="68.84" width="6.69" height="81.6"/><rect class="cls-2" x="361.96" y="60.16" width="19" height="8.68"/><rect class="cls-2" x="369.19" y="68.84" width="6.57" height="81.6"/><rect class="cls-2" x="361.93" y="150.51" width="19.06" height="24.76"/><rect class="cls-2" x="70.63" y="60.16" width="19" height="8.68"/><rect class="cls-2" x="70.6" y="150.51" width="19.06" height="24.76"/><path class="cls-3" d="M138.92,169.16h0A19.6,19.6,0,0,1,122.64,163c-8.4-8.84-7.17-21.95-7-23V39.77c2.33-.1,5.89-.22,10.25-.28,4.69-.06,5.37,0,12.35,0,9.15,0,11-.13,16.72,0,3.2.08,5.79.2,7.42.28.77,45.86.51,81.26,0,100.1-.14,4.9-.5,13.92-5.8,20.79A21,21,0,0,1,138.92,169.16Z"/><path class="cls-4" d="M138.92,162.43h0c-10.52,0-19.13-7.22-19.13-16V73.09a1.31,1.31,0,0,1,1.32-1.19c14.13-.87,8.35-3.21,17.81-3.21h0a16.85,16.85,0,0,1,4.63.71,31,31,0,0,1,5,2.16h0c.58-.2,5-1.62,8.19.36a5.67,5.67,0,0,1,1.35,1.18v73.29C158.06,155.21,149.45,162.43,138.92,162.43Z"/><ellipse class="cls-3" cx="145.78" cy="82.29" rx="4.34" ry="5.21"/><ellipse class="cls-3" cx="151.16" cy="77.08" rx="2.48" ry="2.98"/><path class="cls-5" d="M127,158.85c-.17.09-.37-.07-.52-.18-.92-.73-1.25-1.34-2-2-.22-.2-.39-.33-.67-.62a10.48,10.48,0,0,1-.68-.84,16.23,16.23,0,0,1-2.64-5,15.74,15.74,0,0,1-.64-5.44V48.79c1.24,0,2.5,0,3.79,0s2.37,0,3.52,0v95.94c.09,6.51.15,11.19.2,12.06a6.8,6.8,0,0,1,0,1.23C127.19,158.6,127.11,158.79,127,158.85Z"/><rect class="cls-6" x="106.37" y="30.64" width="65.53" height="10.44" rx="4.96"/><ellipse class="cls-7" cx="111.86" cy="35.86" rx="1.99" ry="2.35"/><path class="cls-6" d="M115.78,35.85c0,.21-1,.09-1.78.93C112.8,38,113.09,40,112.77,40s-1.45-2.51-.38-4S115.75,35.54,115.78,35.85Z"/><ellipse class="cls-3" cx="153.26" cy="15.01" rx="4.68" ry="5.48"/><ellipse class="cls-3" cx="161.37" cy="6.4" rx="2.68" ry="3.13"/><ellipse class="cls-3" cx="161.37" cy="22.22" rx="2.68" ry="3.13"/><path class="cls-3" d="M226.84,169.16h0A19.62,19.62,0,0,1,210.55,163c-8.4-8.84-7.17-21.95-7.05-23V39.77c2.33-.1,5.89-.22,10.25-.28,4.69-.06,5.37,0,12.36,0,9.14,0,11-.13,16.72,0,3.19.08,5.79.2,7.41.28.77,45.86.51,81.26,0,100.1-.13,4.9-.5,13.92-5.8,20.79A20.94,20.94,0,0,1,226.84,169.16Z"/><path class="cls-4" d="M226.84,162.43h0c-10.53,0-19.14-7.22-19.14-16V73.09A1.31,1.31,0,0,1,209,71.9c14.13-.87,8.35-3.21,17.82-3.21h0a16.83,16.83,0,0,1,4.62.71,30.56,30.56,0,0,1,5,2.16h0c.59-.2,5-1.62,8.19.36A5.48,5.48,0,0,1,246,73.1v73.29C246,155.21,237.36,162.43,226.84,162.43Z"/><ellipse class="cls-3" cx="233.69" cy="82.29" rx="4.34" ry="5.21"/><ellipse class="cls-3" cx="239.08" cy="77.08" rx="2.48" ry="2.98"/><path class="cls-5" d="M214.9,158.85c-.16.09-.37-.07-.52-.18-.92-.73-1.25-1.34-2-2-.22-.2-.38-.33-.67-.62a10.48,10.48,0,0,1-.68-.84,16,16,0,0,1-2.63-5,15.69,15.69,0,0,1-.65-5.44V48.79c1.24,0,2.51,0,3.8,0s2.36,0,3.51,0v95.94c.09,6.51.16,11.19.2,12.06a6.8,6.8,0,0,1-.05,1.23C215.1,158.6,215,158.79,214.9,158.85Z"/><rect class="cls-6" x="194.28" y="30.64" width="65.53" height="10.44" rx="4.96"/><ellipse class="cls-7" cx="199.78" cy="35.86" rx="1.99" ry="2.35"/><path class="cls-6" d="M203.7,35.85c0,.21-1,.09-1.79.93C200.71,38,201,40,200.69,40s-1.45-2.51-.39-4S203.66,35.54,203.7,35.85Z"/><ellipse class="cls-3" cx="241.18" cy="15.01" rx="4.68" ry="5.48"/><ellipse class="cls-3" cx="249.28" cy="6.4" rx="2.68" ry="3.13"/><ellipse class="cls-3" cx="249.28" cy="22.22" rx="2.68" ry="3.13"/><path class="cls-3" d="M316.74,170.12h0A19.55,19.55,0,0,1,300.45,164c-8.4-8.84-7.17-21.95-7.05-23V40.73c2.33-.09,5.89-.21,10.25-.27,4.69-.06,5.37,0,12.36,0,9.14,0,11-.13,16.72,0,3.19.08,5.79.19,7.41.27.77,45.86.51,81.27,0,100.11-.13,4.9-.5,13.92-5.8,20.79A20.89,20.89,0,0,1,316.74,170.12Z"/><path class="cls-4" d="M316.74,163.4h0c-10.52,0-19.13-7.22-19.13-16V74.05a1.3,1.3,0,0,1,1.32-1.18c14.13-.87,8.35-3.21,17.82-3.21h0a16.83,16.83,0,0,1,4.62.71,30.56,30.56,0,0,1,5,2.16h0c.58-.2,5.05-1.62,8.19.35a5.51,5.51,0,0,1,1.35,1.19v73.29C335.87,156.18,327.26,163.4,316.74,163.4Z"/><ellipse class="cls-3" cx="323.59" cy="83.25" rx="4.34" ry="5.21"/><ellipse class="cls-3" cx="328.98" cy="78.05" rx="2.48" ry="2.98"/><path class="cls-5" d="M304.8,159.82c-.17.08-.37-.07-.52-.18-.92-.73-1.25-1.34-2-2-.22-.2-.38-.33-.67-.63a8.9,8.9,0,0,1-.68-.84,16,16,0,0,1-2.63-5,15.48,15.48,0,0,1-.65-5.44V49.76c1.24,0,2.5,0,3.8,0s2.36,0,3.51,0V145.7c.09,6.51.16,11.18.2,12.05a6.9,6.9,0,0,1-.05,1.24C305,159.57,304.92,159.75,304.8,159.82Z"/><rect class="cls-6" x="284.18" y="31.61" width="65.53" height="10.44" rx="4.96"/><ellipse class="cls-7" cx="289.68" cy="36.83" rx="1.99" ry="2.35"/><path class="cls-6" d="M293.6,36.82c0,.2-1,.08-1.79.92C290.61,39,290.9,41,290.59,41s-1.46-2.52-.39-4S293.56,36.5,293.6,36.82Z"/><ellipse class="cls-3" cx="331.08" cy="15.97" rx="4.68" ry="5.48"/><ellipse class="cls-3" cx="339.18" cy="7.36" rx="2.68" ry="3.13"/><ellipse class="cls-3" cx="339.18" cy="23.19" rx="2.68" ry="3.13"/><rect class="cls-2" x="41.29" y="52.65" width="372" height="7.51"/></svg>