<svg id="Layer_1" data-name="Layer 1" xmlns="http://www.w3.org/2000/svg" viewBox="0 0 454.4 144.33"><defs><style>.cls-1{fill:#c49a6c;}.cls-1,.cls-2{stroke:#231f20;stroke-miterlimit:10;}.cls-2{fill:#231f20;}</style></defs><path class="cls-1" d="M450.76,144.33H4.5l58.61-23.16H393.48Z"/><path class="cls-1" d="M450.76,143.6H4.5l58.61-23.46H393.48Z"/><path class="cls-1" d="M450.76,142.88H4.5l58.61-23.76H393.48Z"/><path class="cls-1" d="M450.76,142.15H4.5l58.61-24.06H393.48Z"/><path class="cls-1" d="M450.76,141.43H4.5l58.61-24.37H393.48Z"/><path class="cls-1" d="M450.76,140.71H4.5L63.11,116H393.48Z"/><path class="cls-1" d="M450.76,140H4.5l58.61-25H393.48Z"/><path class="cls-1" d="M450.76,139.26H4.5L63.11,114H393.48Z"/><path class="cls-1" d="M450.76,138.54H4.5L63.11,113H393.48Z"/><path class="cls-1" d="M450.76,137.81H4.5l58.61-25.88H393.48Z"/><path class="cls-1" d="M450.76,137.09H4.5L63.11,110.9H393.48Z"/><path class="cls-1" d="M450.76,136.36H4.5l58.61-26.48H393.48Z"/><path class="cls-1" d="M450.76,135.64H4.5l58.61-26.79H393.48Z"/><path class="cls-1" d="M450.76,134.92H4.5l58.61-27.09H393.48Z"/><path class="cls-1" d="M450.76,134.19H4.5L63.11,106.8H393.48Z"/><path class="cls-1" d="M450.76,133.47H4.5l58.61-27.7H393.48Z"/><path class="cls-1" d="M450.76,132.75H4.5l58.61-28H393.48Z"/><rect class="cls-2" x="77.12" y="17.55" width="6.69" height="81.6"/><rect class="cls-2" x="362.3" y="8.87" width="19" height="8.68"/><rect class="cls-2" x="369.52" y="17.55" width="6.57" height="81.6"/><rect class="cls-2" x="362.27" y="99.22" width="19.06" height="24.76"/><rect class="cls-2" x="70.97" y="8.87" width="19" height="8.68"/><rect class="cls-2" x="70.94" y="99.22" width="19.06" height="24.76"/><rect class="cls-2" x="41.63" y="1.35" width="372" height="7.51"/></svg>