<svg id="Layer_1" data-name="Layer 1" xmlns="http://www.w3.org/2000/svg" xmlns:xlink="http://www.w3.org/1999/xlink" viewBox="0 0 960 960"><defs><style>.cls-1{fill:url(#linear-gradient);}.cls-2{fill:#865f43;}.cls-3{fill:#735439;opacity:0.21;}.cls-3,.cls-5{isolation:isolate;}.cls-4{fill:#a97d58;}.cls-5{fill:#f47721;opacity:0.5;}.cls-6{fill:#8b6848;}.cls-7{fill:#9d6a28;}.cls-8{fill:none;stroke:#231f20;stroke-miterlimit:10;stroke-width:13px;}</style><linearGradient id="linear-gradient" x1="1.09" y1="480.05" x2="959.31" y2="480.05" gradientUnits="userSpaceOnUse"><stop offset="0" stop-color="#1e6db6"/><stop offset="0.01" stop-color="#093655"/></linearGradient></defs><rect class="cls-1" x="1.09" y="0.94" width="958.22" height="958.22"/><g id="Artwork_3" data-name="Artwork 3"><path class="cls-2" d="M616.4,654.34,591.68,644l.84-127.38L616.4,515Q616.39,584.67,616.4,654.34Z"/><path class="cls-3" d="M371.18,651.42l-21.29.45Q350,584.46,350,517l20.48.45Z"/><path class="cls-2" d="M371.18,786.15l-26.68,10V664.41h26.68Z"/><path class="cls-2" d="M372.58,643.42l-22.9,13.31q.21-70.37.43-140.58l23.53.29Z"/><rect class="cls-4" x="612.86" y="789.68" width="3.53" height="12.93"/><path class="cls-5" d="M592.38,643.22l-219.8.2,1.14-132.67,219.48.09Q592.81,577,592.38,643.22Z"/><path class="cls-5" d="M593.08,786l-221.9.17V664.41l222.48-.84Q593.38,724.77,593.08,786Z"/><rect class="cls-5" x="371.24" y="810.84" width="223.62" height="95.26"/><path class="cls-6" d="M591.68,648.92H368.85v-5Z"/><path class="cls-7" d="M350.62,938.46H344.5V806.73h5.33Q350.24,872.6,350.62,938.46Z"/><rect class="cls-7" x="616.4" y="514.32" width="6.81" height="140.02"/><rect class="cls-7" x="616.38" y="806.73" width="6.81" height="131.74"/><path class="cls-2" d="M617.65,797,593.08,786l.65-122.41,23.88.39Z"/><path class="cls-2" d="M371.18,810.84v95.28l-21.29,32.3V810.84Z"/><path class="cls-2" d="M616.38,938.46l-21.51-32.3V810.84l21.51-.08Z"/><path class="cls-2" d="M593.08,786H370.89L344.5,796.15q69.42.63,138.84.62,66.54,0,133.09-.62Z"/><path class="cls-2" d="M616.38,938.46H350.62l21.23-32.3H594.92Z"/><path class="cls-7" d="M623.64,959.66l-280.55-.51q.68-10.35,1.41-20.69H623.21Q623.42,949.07,623.64,959.66Z"/><path class="cls-7" d="M623.21,810.76H344.5V796.15H623.21Z"/><rect class="cls-7" x="344.45" y="664.41" width="4.96" height="131.74"/><rect class="cls-7" x="616.38" y="661.48" width="6.81" height="134.67"/><path class="cls-7" d="M623.21,664.33l-278.71.08V654.24l278.75.1Z"/><rect class="cls-7" x="344.19" y="506.96" width="5.49" height="149.77"/><path class="cls-7" d="M623.21,516.34q-70.12.51-140.28.51-69.24,0-138.48-.51V502.1H623.21Z"/><path class="cls-2" d="M620.19,655.57l-275.69.3,30.14-14.29,218.92.54Z"/></g><g id="Artwork_3-2" data-name="Artwork 3"><path class="cls-2" d="M290.37,654.58l-24.66-10.37.84-127.08,23.82-1.56Q290.36,585.06,290.37,654.58Z"/><path class="cls-3" d="M45.74,651.66l-21.24.45q.08-67.24.14-134.5l20.42.44Z"/><path class="cls-2" d="M45.74,786.07,19.12,796V664.62H45.74Z"/><path class="cls-2" d="M47.14,643.68,24.29,657q.21-70.2.43-140.25l23.47.29Z"/><rect class="cls-4" x="286.83" y="789.58" width="3.52" height="12.9"/><path class="cls-5" d="M266.41,643.48l-219.27.2,1.13-132.35,219,.08Q266.85,577.46,266.41,643.48Z"/><path class="cls-5" d="M267.11,785.9l-221.37.17V664.62l221.94-.84Z"/><rect class="cls-5" x="45.79" y="810.7" width="223.08" height="95.04"/><path class="cls-6" d="M265.71,649.17H43.41v-5Z"/><path class="cls-7" d="M25.22,938h-6.1V806.59h5.32Q24.85,872.31,25.22,938Z"/><rect class="cls-7" x="290.37" y="514.89" width="6.8" height="139.69"/><rect class="cls-7" x="290.35" y="806.59" width="6.8" height="131.42"/><path class="cls-2" d="M291.61,796.93l-24.5-11,.64-122.12,23.82.39Z"/><path class="cls-2" d="M45.74,810.7v95L24.5,938V810.7Z"/><path class="cls-2" d="M290.35,938l-21.46-32.22V810.7l21.46-.09Z"/><path class="cls-2" d="M267.11,785.9H45.44L19.12,796q69.26.63,138.51.62,66.38,0,132.76-.62Z"/><path class="cls-2" d="M290.35,938H25.22l21.19-32.22H268.94Z"/><path class="cls-7" d="M297.59,959.16l-279.88-.51q.67-10.32,1.41-20.64h278Q297.37,948.6,297.59,959.16Z"/><path class="cls-7" d="M297.16,810.61h-278V796h278Z"/><rect class="cls-7" x="19.07" y="664.62" width="4.95" height="131.42"/><rect class="cls-7" x="290.35" y="661.69" width="6.8" height="134.35"/><path class="cls-7" d="M297.16,664.54l-278,.08V654.48l278.08.1Z"/><rect class="cls-7" x="18.81" y="507.55" width="5.48" height="149.41"/><path class="cls-7" d="M297.16,516.91q-70,.5-139.94.5-69.07,0-138.15-.5V502.7H297.16Z"/><path class="cls-2" d="M294.15,655.79l-275,.31,30.06-14.26,218.4.55Z"/></g><g id="Artwork_3-3" data-name="Artwork 3"><path class="cls-2" d="M939.84,654.78l-24.69-10.39L916,517.15l23.85-1.56Q939.83,585.17,939.84,654.78Z"/><path class="cls-3" d="M694.89,651.86l-21.27.45q.09-67.35.14-134.68l20.46.44Z"/><path class="cls-2" d="M694.89,786.44l-26.65,10V664.83h26.65Z"/><path class="cls-2" d="M696.29,643.86l-22.88,13.3q.21-70.29.44-140.43l23.5.29Z"/><rect class="cls-4" x="936.31" y="789.96" width="3.52" height="12.92"/><path class="cls-5" d="M915.85,643.66l-219.56.2,1.14-132.52,219.24.08Q916.28,577.54,915.85,643.66Z"/><path class="cls-5" d="M916.55,786.27l-221.66.17V664.83L917.13,664Q916.85,725.13,916.55,786.27Z"/><rect class="cls-5" x="694.95" y="811.1" width="223.37" height="95.16"/><path class="cls-6" d="M915.15,649.36H692.56v-5Z"/><path class="cls-7" d="M674.35,938.59h-6.11V807h5.33Q674,872.8,674.35,938.59Z"/><rect class="cls-7" x="939.84" y="514.9" width="6.8" height="139.87"/><rect class="cls-7" x="939.83" y="806.99" width="6.8" height="131.59"/><path class="cls-2" d="M941.09,797.31l-24.54-11L917.2,664l23.85.4Z"/><path class="cls-2" d="M694.89,811.1v95.18l-21.27,32.27V811.1Z"/><path class="cls-2" d="M939.83,938.59l-21.49-32.27V811.1l21.49-.08Z"/><path class="cls-2" d="M916.55,786.27H694.6l-26.36,10.16q69.35.63,138.69.62,66.47,0,132.94-.62Z"/><path class="cls-2" d="M939.83,938.59H674.35l21.21-32.27H918.39Z"/><path class="cls-7" d="M947.08,959.76l-280.25-.51q.67-10.34,1.41-20.66H946.65Q946.86,949.18,947.08,959.76Z"/><path class="cls-7" d="M946.65,811H668.24V796.43H946.65Z"/><rect class="cls-7" x="668.19" y="664.83" width="4.95" height="131.59"/><rect class="cls-7" x="939.83" y="661.9" width="6.8" height="134.53"/><path class="cls-7" d="M946.65,664.75l-278.41.08V654.68l278.45.1Z"/><rect class="cls-7" x="667.93" y="507.55" width="5.49" height="149.61"/><path class="cls-7" d="M946.65,516.92q-70,.51-140.13.51-69.16,0-138.33-.51V502.7H946.65Z"/><path class="cls-2" d="M943.63,656l-275.39.31L698.34,642l218.69.55Z"/></g><rect class="cls-8" x="724.65" y="98.73" width="122.24" height="151.39"/><rect class="cls-8" x="498.57" y="98.73" width="122.24" height="151.39"/><rect class="cls-8" x="266.09" y="98.73" width="122.24" height="151.39"/><rect class="cls-8" x="37.55" y="98.73" width="122.24" height="151.39"/></svg>