<svg id="Layer_1" data-name="Layer 1" xmlns="http://www.w3.org/2000/svg" xmlns:xlink="http://www.w3.org/1999/xlink" viewBox="0 0 960 960"><defs><style>.cls-1{fill:url(#linear-gradient);}.cls-14,.cls-2,.cls-6{opacity:0.5;}.cls-2{fill:url(#linear-gradient-2);}.cls-10,.cls-17,.cls-3,.cls-9{stroke:#231f20;stroke-miterlimit:10;}.cls-3{fill:url(#linear-gradient-3);}.cls-4{fill:#231f20;}.cls-5{fill:url(#linear-gradient-4);}.cls-6{fill:url(#linear-gradient-5);}.cls-7{fill:url(#linear-gradient-6);}.cls-8{fill:url(#linear-gradient-7);}.cls-9{fill:url(#linear-gradient-8);}.cls-10{fill:url(#linear-gradient-9);}.cls-11{fill:#865f43;}.cls-12{fill:#735439;opacity:0.21;}.cls-12,.cls-14{isolation:isolate;}.cls-13{fill:#a97d58;}.cls-14{fill:#f47721;}.cls-15{fill:#8b6848;}.cls-16{fill:#9d6a28;}.cls-17{fill:none;stroke-width:13px;}</style><linearGradient id="linear-gradient" x1="209.23" y1="386.15" x2="886.63" y2="386.15" gradientTransform="matrix(-1.44, 0, 0, -1.67, 1271.97, 1127.53)" gradientUnits="userSpaceOnUse"><stop offset="0" stop-color="#1d6cb6"/><stop offset="0" stop-color="#145186"/><stop offset="0" stop-color="#0e3d62"/><stop offset="0" stop-color="#0b3555"/></linearGradient><linearGradient id="linear-gradient-2" x1="964.18" y1="518.95" x2="420.65" y2="518.95" gradientUnits="userSpaceOnUse"><stop offset="0" stop-color="#00aeef" stop-opacity="0.5"/><stop offset="0.29" stop-color="#0676a8" stop-opacity="0.73"/><stop offset="0.67" stop-color="#0b466b" stop-opacity="0.93"/><stop offset="1" stop-color="#0d3556"/></linearGradient><linearGradient id="linear-gradient-3" x1="466.17" y1="890.57" x2="483.88" y2="890.57" gradientTransform="translate(-411.33 1373.42) rotate(-90.5)" gradientUnits="userSpaceOnUse"><stop offset="0" stop-color="#3c2415"/><stop offset="1" stop-color="#754c29"/></linearGradient><linearGradient id="linear-gradient-4" x1="849.98" y1="521.9" x2="685.59" y2="521.9" gradientUnits="userSpaceOnUse"><stop offset="0" stop-color="#00aeef"/><stop offset="0" stop-color="#038ec7"/><stop offset="0" stop-color="#076e9f"/><stop offset="0" stop-color="#0a557f"/><stop offset="0" stop-color="#0b4368"/><stop offset="0" stop-color="#0d395b"/><stop offset="0" stop-color="#0d3556"/></linearGradient><linearGradient id="linear-gradient-5" x1="968.65" y1="885.62" x2="754.97" y2="885.62" gradientUnits="userSpaceOnUse"><stop offset="0" stop-color="#00aeef" stop-opacity="0.5"/><stop offset="0.56" stop-color="#01a7e7" stop-opacity="0.53"/><stop offset="0.76" stop-color="#038fc8" stop-opacity="0.63"/><stop offset="0.9" stop-color="#086593" stop-opacity="0.8"/><stop offset="1" stop-color="#0d3556"/></linearGradient><linearGradient id="linear-gradient-6" x1="680.09" y1="538.28" x2="690.98" y2="538.28" gradientUnits="userSpaceOnUse"><stop offset="0" stop-color="#1f5c96"/><stop offset="0" stop-color="#1e5992"/><stop offset="0.01" stop-color="#184c7c"/><stop offset="0.01" stop-color="#13426b"/><stop offset="0.02" stop-color="#0f3a5f"/><stop offset="0.02" stop-color="#0e3658"/><stop offset="0.04" stop-color="#0d3556"/><stop offset="0.18" stop-color="#0d3556"/><stop offset="1" stop-color="#0d3556"/></linearGradient><linearGradient id="linear-gradient-7" x1="829.24" y1="537.75" x2="837.88" y2="537.75" gradientUnits="userSpaceOnUse"><stop offset="0" stop-color="#fff"/><stop offset="0" stop-color="#d5dce2"/><stop offset="0" stop-color="#abb9c5"/><stop offset="0" stop-color="#8599aa"/><stop offset="0" stop-color="#657e93"/><stop offset="0" stop-color="#496780"/><stop offset="0" stop-color="#335570"/><stop offset="0" stop-color="#224664"/><stop offset="0" stop-color="#163c5c"/><stop offset="0" stop-color="#0f3757"/><stop offset="0" stop-color="#0d3556"/><stop offset="0.14" stop-color="#0d3556"/><stop offset="1" stop-color="#0d3556"/></linearGradient><linearGradient id="linear-gradient-8" x1="744.88" y1="891.59" x2="762.59" y2="891.59" gradientTransform="translate(-131.2 1653.14) rotate(-90.5)" xlink:href="#linear-gradient-3"/><linearGradient id="linear-gradient-9" x1="422.65" y1="780" x2="807.66" y2="780" gradientTransform="matrix(1, 0, 0, 1, 0, 0)" xlink:href="#linear-gradient-3"/></defs><path class="cls-1" d="M.86-2.72l972.55.63-4.14,965.16-970-1.53Z"/><path class="cls-2" d="M962.5,773.31l-541.85,0Q692.42,518.93,964.18,264.58"/><rect class="cls-3" x="372.2" y="882.63" width="205.66" height="15.9" transform="matrix(-0.01, 1, -1, -0.01, 1369.74, 423.4)"/><rect class="cls-4" x="661.96" y="518.61" width="186.02" height="8.58"/><rect class="cls-4" x="678.09" y="527.19" width="10.89" height="23.13"/><rect class="cls-4" x="827.24" y="527.19" width="8.64" height="23.13"/><path class="cls-5" d="M695,517.61l-9.4,8.58H850v-8.58Z"/><path class="cls-6" d="M816.89,773.31h147l.73,108.55,4.08,116.08H755q1.71-100,3.43-200.06,2.49-11.53,5-23Z"/><path class="cls-7" d="M680.09,532l5.5-5.78H691v24.19H680.09Z"/><rect class="cls-8" x="829.24" y="526.19" width="8.64" height="23.13"/><rect class="cls-9" x="650.9" y="883.65" width="205.66" height="15.9" transform="translate(1651.92 145.73) rotate(90.5)"/><rect class="cls-10" x="422.65" y="772.31" width="385.01" height="15.38"/><g id="Artwork_3" data-name="Artwork 3"><path class="cls-11" d="M341,661,314.7,650.77l.9-125.59L341,523.64Q341,592.32,341,661Z"/><path class="cls-12" d="M80.2,658.13l-22.65.45q.09-66.47.15-132.93l21.78.44Z"/><path class="cls-11" d="M80.2,791l-28.38,9.86V670.94H80.2Z"/><path class="cls-11" d="M81.69,650.24,57.33,663.37q.22-69.37.46-138.61l25,.29Z"/><rect class="cls-13" x="337.22" y="794.44" width="3.75" height="12.75"/><path class="cls-14" d="M315.45,650.05l-233.76.19,1.21-130.8,233.41.09Q315.91,584.78,315.45,650.05Z"/><path class="cls-14" d="M316.19,790.8,80.2,791v-120l236.61-.83Q316.51,730.46,316.19,790.8Z"/><rect class="cls-14" x="80.26" y="815.31" width="237.82" height="93.92"/><path class="cls-15" d="M314.7,655.67h-237v-4.9Z"/><path class="cls-16" d="M58.33,941.14H51.82V811.25h5.67Q57.93,876.2,58.33,941.14Z"/><rect class="cls-16" x="340.99" y="522.96" width="7.24" height="138.05"/><rect class="cls-16" x="340.97" y="811.25" width="7.24" height="129.88"/><path class="cls-11" d="M342.32,801.7l-26.13-10.9.69-120.69,25.39.39Z"/><path class="cls-11" d="M80.2,815.31v93.94L57.55,941.1V815.31Z"/><path class="cls-11" d="M341,941.14l-22.88-31.85v-94l22.88-.08Z"/><path class="cls-11" d="M316.19,790.8H79.88l-28.06,10q73.83.61,147.66.61,70.77,0,141.54-.61Z"/><path class="cls-11" d="M341,941.14H58.33l22.58-31.85H318.15Z"/><path class="cls-16" d="M348.69,962l-298.36-.5q.7-10.2,1.49-20.39H348.23Q348.46,951.6,348.69,962Z"/><path class="cls-16" d="M348.23,815.23H51.82v-14.4H348.23Z"/><rect class="cls-16" x="51.77" y="670.94" width="5.27" height="129.88"/><rect class="cls-16" x="340.97" y="668.05" width="7.24" height="132.78"/><path class="cls-16" d="M348.23,670.86l-296.41.08v-10l296.46.09Z"/><rect class="cls-16" x="51.49" y="515.7" width="5.84" height="147.66"/><path class="cls-16" d="M348.23,525q-74.58.51-149.18.5-73.64,0-147.28-.5v-14H348.23Z"/><path class="cls-11" d="M345,662.22l-293.2.3,32.05-14.09L316.7,649Z"/></g><rect class="cls-17" x="72.69" y="92.35" width="123.05" height="152.4"/></svg>